<?xml version="1.0" encoding="utf-8"?>
<!-- Generator: Adobe Illustrator 24.1.2, SVG Export Plug-In . SVG Version: 6.00 Build 0)  -->
<svg version="1.1" id="Foreground" xmlns="http://www.w3.org/2000/svg" xmlns:xlink="http://www.w3.org/1999/xlink" x="0px" y="0px"
	 viewBox="0 0 326 234" style="enable-background:new 0 0 326 234;" xml:space="preserve">
<style type="text/css">
	.st0{fill:#00A651;}
	.st1{fill-rule:evenodd;clip-rule:evenodd;fill:#FFFFFF;}
	.st2{fill:#FFFFFF;}
	.st3{fill-rule:evenodd;clip-rule:evenodd;fill:none;stroke:#192F54;stroke-width:2.641300e-02;stroke-miterlimit:3.8637;}
</style>
<symbol  id="Bush_Left" viewBox="-43.3 -24.3 86.6 48.6">
	<g>
		<g>
			<path class="st0" d="M-33.9-3.5C-25.6,5.4-20.7,18-20.7,18C-24.1,7.5-28.2,2.3-34.9-6.2L-33.9-3.5z"/>
			<path class="st0" d="M-30.5,3.2c0.3,2.3,2.4,11.4,2.4,11.4L-30.3,9c-0.5-2.9,0.8-5.6,0.4-8L-30.5,3.2z"/>
			<path class="st0" d="M-27.7,8.6c0.3,2.3,1.7,9.8,1.7,9.8l-0.5-3.8c0-2.4-0.2-5.7-0.5-8.1L-27.7,8.6z"/>
			<path class="st0" d="M-24.2,13.4c0.2,1.4,3.1,6.6,3.1,6.6l-2.2-2.9c0-1.5-0.2-3.5-0.4-5L-24.2,13.4z"/>
			<path class="st0" d="M-21.2,18.1c0.6,1.2,2.8,6.2,2.8,6.2l-1.3-3.5c-0.3-1.3-1-3-1.6-4.3L-21.2,18.1z"/>
			<path class="st0" d="M-26,10.3c0.3,2.3,1.7,9.8,1.7,9.8l-1.2-4.8c0-2.4,0.4-4.7,0.1-7.1L-26,10.3z"/>
			<path class="st0" d="M-24.5,3.5c1.4,0.9,6.5,3.4,6.5,3.4l-3.3-2.2c-1.8-1.2-5.3-0.6-6.8-1.5L-24.5,3.5z"/>
			<path class="st0" d="M-21.9,6.9c1.9,1.3,6.1,5.1,6.1,5.1l-3.2-2.1c-2.2-1.1-5.1-2.7-7.1-4L-21.9,6.9z"/>
			<path class="st0" d="M-21.8,13.1c1,0.9,3.9,6.2,3.9,6.2l-1.3-3.4c-1.2-0.8-2.8-2-3.9-3L-21.8,13.1z"/>
			<path class="st0" d="M-23.3,9.5c1.6,1,6,5.9,6,5.9l-2.6-3.9c-1.8-0.9-3.5-1.2-5.1-2.2L-23.3,9.5z"/>
			<path class="st0" d="M-33,0.4c0.3,2.3,1.6,12.7,1.6,12.7l-1.4-6.9c-0.5-2.9,0.8-5.6,0.4-8L-33,0.4z"/>
			<path class="st0" d="M-35-1.3c0.3,2.3,1.6,12.7,1.6,12.7l-1.4-6.9c-0.5-2.9,0.8-5.6,0.4-8L-35-1.3z"/>
			<path class="st0" d="M-29.4-0.6c1.5,0.6,10.2,4.3,10.2,4.3L-24,0.6c-1.9-0.8-5.4-0.5-7-1.1L-29.4-0.6z"/>
			<path class="st0" d="M-30-3.3c1.7,0.7,9.7,4.1,9.7,4.1L-25.4-2C-27.5-3-30-2.2-31.8-3L-30-3.3z"/>
		</g>
		<g>
			<path class="st0" d="M-41.1-9.8c17.3-2.8,35.8-10.6,35.8-10.6c-13.5,6.7-22.8,8.7-38,12.1L-41.1-9.8z"/>
			<path class="st0" d="M-29.9-13.6c2.4-1.7,13.1-8,13.1-8l-7.5,3.4c-3.2,2.1-4.2,4.9-6.8,6.7L-29.9-13.6z"/>
			<path class="st0" d="M-21.8-16.4c2.4-1.7,10.9-7,10.9-7l-4.1,2.8c-2.2,2-5.5,4.5-8,6.3L-21.8-16.4z"/>
			<path class="st0" d="M-13.5-18.5c1.5-1,9.4-3.7,9.4-3.7L-9.2-21c-1.4,1.2-3.4,2.8-5,3.8L-13.5-18.5z"/>
			<path class="st0" d="M-5.9-20.7c1.7-0.6,8.8-3.6,8.8-3.6l-4.6,2.2c-1.5,0.9-3.8,1.9-5.7,2.6L-5.9-20.7z"/>
			<path class="st0" d="M-18.4-17c2.4-1.7,10.9-7,10.9-7l-5.7,3.3c-2.2,2-3.8,4-6.4,5.8L-18.4-17z"/>
			<path class="st0" d="M-22.9-10.7c2.4,0,10.3,0.7,10.3,0.7l-5.7,0c-3,0-6.5-2.3-9-2.3L-22.9-10.7z"/>
			<path class="st0" d="M-16.9-12c3.3,0,11.4-0.9,11.4-0.9l-5.5,0.1c-3.4-0.3-8.1-0.5-11.5-0.4L-16.9-12z"/>
			<path class="st0" d="M-11.2-17c2-0.2,9.9-3,9.9-3l-4.5,2.1c-2.1,0-5,0.2-7.1,0.4L-11.2-17z"/>
			<path class="st0" d="M-16.1-14.9c2.7,0,12-1.6,12-1.6l-6.5,1.8c-2.8-0.3-4.9-0.9-7.7-0.9L-16.1-14.9z"/>
			<path class="st0" d="M-35.2-12.6c2.4-1.7,13.4-9.5,13.4-9.5l-7.8,4.8c-3.2,2.1-4.2,4.9-6.8,6.7L-35.2-12.6z"/>
			<path class="st0" d="M-38.9-12.3c2.4-1.7,13.4-9.5,13.4-9.5l-7.8,4.8c-3.2,2.1-4.2,4.9-6.8,6.7L-38.9-12.3z"/>
			<path class="st0" d="M-32-10c2.3,0.3,15.2,1.9,15.2,1.9l-8.2,0c-2.9-0.3-6.4-2.5-8.8-2.8L-32-10z"/>
			<path class="st0" d="M-35.2-8c2.6,0.3,14.5,1.8,14.5,1.8l-8.2-0.5C-32.2-7-34.2-8.9-37-9.2L-35.2-8z"/>
		</g>
		<g>
			<path class="st0" d="M-20-4.8c13.5-2,27.7-7.1,27.7-7.1C-2.8-7.2-10-5.7-21.9-3.3L-20-4.8z"/>
			<path class="st0" d="M-11.4-7c1.9-1.2,10.2-5.6,10.2-5.6L-7-10.3c-2.5,1.5-3.3,3.4-5.3,4.7L-11.4-7z"/>
			<path class="st0" d="M-5.1-9c1.9-1.2,8.5-5,8.5-5l-3.2,2C-1.5-10.7-4.1-8.9-6-7.6L-5.1-9z"/>
			<path class="st0" d="M1.3-10.5c1.2-0.7,7.3-2.6,7.3-2.6l-4,0.9c-1.1,0.8-2.6,1.9-3.9,2.7L1.3-10.5z"/>
			<path class="st0" d="M7.3-12.1c1.4-0.4,6.8-2.5,6.8-2.5l-3.6,1.5c-1.2,0.6-3,1.4-4.4,1.8L7.3-12.1z"/>
			<path class="st0" d="M-2.5-9.5c1.9-1.2,8.5-5,8.5-5l-4.4,2.3c-1.7,1.4-3,2.8-5,4.1L-2.5-9.5z"/>
			<path class="st0" d="M-6-5c1.8,0,8,0.5,8,0.5l-4.5,0c-2.4,0-5-1.6-7-1.7L-6-5z"/>
			<path class="st0" d="M-1.3-5.9c2.5,0,8.9-0.6,8.9-0.6l-4.3,0c-2.7-0.2-6.3-0.3-9-0.3L-1.3-5.9z"/>
			<path class="st0" d="M3.1-9.5c1.6-0.1,7.7-2.1,7.7-2.1l-3.5,1.5c-1.7,0-3.9,0.1-5.6,0.3L3.1-9.5z"/>
			<path class="st0" d="M-0.7-7.9c2.1,0,9.3-1.1,9.3-1.1l-5,1.2C1.4-8-0.2-8.5-2.4-8.5L-0.7-7.9z"/>
			<path class="st0" d="M-15.5-6.3C-13.7-7.5-5.1-13-5.1-13l-6.1,3.4c-2.5,1.5-3.3,3.4-5.3,4.7L-15.5-6.3z"/>
			<path class="st0" d="M-18.4-6.2C-16.6-7.3-8-12.8-8-12.8l-6.1,3.4c-2.5,1.5-3.3,3.4-5.3,4.7L-18.4-6.2z"/>
			<path class="st0" d="M-13.1-4.5c1.8,0.2,11.9,1.3,11.9,1.3l-6.4,0c-2.3-0.2-5-1.7-6.8-2L-13.1-4.5z"/>
			<path class="st0" d="M-15.6-3.1c2,0.2,11.3,1.3,11.3,1.3l-6.4-0.3C-13.3-2.4-14.8-3.7-17-4L-15.6-3.1z"/>
		</g>
		<g>
			<path class="st0" d="M1.7-2.1c12.2-1.7,25.1-6.1,25.1-6.1C17.3-4.1,10.7-2.8,0-0.8L1.7-2.1z"/>
			<path class="st0" d="M9.5-4c1.7-1,9.2-4.8,9.2-4.8l-5.3,2.1c-2.2,1.3-3,3-4.8,4L9.5-4z"/>
			<path class="st0" d="M15.2-5.7c1.7-1,7.7-4.3,7.7-4.3L20-8.3c-1.6,1.2-3.9,2.7-5.7,3.8L15.2-5.7z"/>
			<path class="st0" d="M21-7c1.1-0.6,6.7-2.3,6.7-2.3L24-8.5c-1,0.7-2.4,1.7-3.5,2.3L21-7z"/>
			<path class="st0" d="M26.4-8.3c1.2-0.4,6.2-2.2,6.2-2.2l-3.3,1.3c-1.1,0.5-2.7,1.2-4,1.6L26.4-8.3z"/>
			<path class="st0" d="M17.6-6.1c1.7-1,7.7-4.3,7.7-4.3l-4,2c-1.6,1.2-2.7,2.4-4.5,3.5L17.6-6.1z"/>
			<path class="st0" d="M14.3-2.2c1.7,0,7.3,0.4,7.3,0.4l-4,0c-2.1,0-4.6-1.4-6.3-1.4L14.3-2.2z"/>
			<path class="st0" d="M18.6-3c2.3,0,8.1-0.5,8.1-0.5l-3.9,0c-2.4-0.2-5.7-0.3-8.1-0.3L18.6-3z"/>
			<path class="st0" d="M22.6-6.1c1.4-0.1,7-1.8,7-1.8l-3.2,1.3c-1.5,0-3.5,0.1-5,0.2L22.6-6.1z"/>
			<path class="st0" d="M19.2-4.8c1.9,0,8.4-1,8.4-1l-4.6,1.1c-2-0.2-3.5-0.5-5.5-0.5L19.2-4.8z"/>
			<path class="st0" d="M5.7-3.4c1.7-1,9.5-5.7,9.5-5.7L9.7-6.2c-2.2,1.3-3,3-4.8,4L5.7-3.4z"/>
			<path class="st0" d="M3.1-3.2c1.7-1,9.5-5.7,9.5-5.7L7-6c-2.2,1.3-3,3-4.8,4L3.1-3.2z"/>
			<path class="st0" d="M7.9-1.8c1.6,0.2,10.7,1.1,10.7,1.1l-5.8,0c-2.1-0.2-4.5-1.5-6.2-1.7L7.9-1.8z"/>
			<path class="st0" d="M5.7-0.6C7.5-0.4,16,0.5,16,0.5l-5.8-0.3C7.8,0,6.4-1.2,4.4-1.4L5.7-0.6z"/>
		</g>
		<g>
			<path class="st0" d="M14,2.8c11.1-1.5,22.7-5.2,22.7-5.2c-8.6,3.5-14.5,4.6-24.3,6.3L14,2.8z"/>
			<path class="st0" d="M21.1,1.2C22.6,0.3,29.4-3,29.4-3l-4.8,1.8c-2,1.1-2.7,2.6-4.3,3.5L21.1,1.2z"/>
			<path class="st0" d="M26.2-0.3c1.5-0.9,7-3.7,7-3.7l-2.6,1.5c-1.4,1-3.5,2.4-5.1,3.3L26.2-0.3z"/>
			<path class="st0" d="M31.5-1.4c1-0.5,6-2,6-2l-3.3,0.6c-0.9,0.6-2.2,1.4-3.2,2L31.5-1.4z"/>
			<path class="st0" d="M36.4-2.5C37.5-2.9,42-4.4,42-4.4l-3,1.1c-1,0.5-2.4,1-3.6,1.4L36.4-2.5z"/>
			<path class="st0" d="M28.4-0.6c1.5-0.9,7-3.7,7-3.7l-3.6,1.7c-1.4,1-2.4,2.1-4.1,3L28.4-0.6z"/>
			<path class="st0" d="M25.5,2.7C27,2.7,32.1,3,32.1,3l-3.7,0c-1.9,0-4.1-1.2-5.7-1.2L25.5,2.7z"/>
			<path class="st0" d="M29.4,2c2.1,0,7.3-0.5,7.3-0.5l-3.5,0C31,1.4,28,1.3,25.8,1.3L29.4,2z"/>
			<path class="st0" d="M33-0.6c1.3-0.1,6.3-1.5,6.3-1.5l-2.9,1.1c-1.4,0-3.2,0.1-4.6,0.2L33-0.6z"/>
			<path class="st0" d="M29.9,0.5c1.7,0,7.6-0.8,7.6-0.8l-4.1,0.9c-1.8-0.1-3.1-0.5-4.9-0.5L29.9,0.5z"/>
			<path class="st0" d="M17.7,1.7c1.5-0.9,8.6-4.9,8.6-4.9l-5,2.5c-2,1.1-2.7,2.6-4.3,3.5L17.7,1.7z"/>
			<path class="st0" d="M15.3,1.8c1.5-0.9,8.6-4.9,8.6-4.9l-5,2.5c-2,1.1-2.7,2.5-4.3,3.5L15.3,1.8z"/>
			<path class="st0" d="M19.7,3.1c1.5,0.2,9.7,1,9.7,1l-5.2,0c-1.9-0.2-4.1-1.3-5.6-1.5L19.7,3.1z"/>
			<path class="st0" d="M17.7,4.1C19.3,4.2,26.9,5,26.9,5l-5.2-0.2c-2.2-0.2-3.4-1.1-5.2-1.3L17.7,4.1z"/>
		</g>
		<g>
			<path class="st0" d="M-16.8,0.1c7.6,6.3,13.9,16,13.9,16C-7,8-10.9,4.2-17.2-2L-16.8,0.1z"/>
			<path class="st0" d="M-12.5,5.1c0.5,1.8,3.3,9.1,3.3,9.1l-2.4-4.3c-0.7-2.3-0.1-4.6-0.7-6.6L-12.5,5.1z"/>
			<path class="st0" d="M-9.6,9.2C-9.1,11-7,17.1-7,17.1l-0.9-3c-0.3-2-0.9-4.7-1.5-6.6L-9.6,9.2z"/>
			<path class="st0" d="M-6.3,12.7c0.3,1.1,3.2,5,3.2,5l-2.1-2.1c-0.2-1.2-0.6-2.9-0.9-4L-6.3,12.7z"/>
			<path class="st0" d="M-3.3,16.2c0.6,0.9,3,4.8,3,4.8l-1.5-2.7c-0.4-1-1.1-2.4-1.8-3.3L-3.3,16.2z"/>
			<path class="st0" d="M-8.1,10.5c0.5,1.8,2.6,7.8,2.6,7.8L-7,14.5c-0.3-2-0.3-3.9-0.8-5.8L-8.1,10.5z"/>
			<path class="st0" d="M-7.8,4.7c1.2,0.5,5.5,2,5.5,2l-2.9-1.4c-1.5-0.7-4.2,0.1-5.5-0.4L-7.8,4.7z"/>
			<path class="st0" d="M-5.3,7.1c1.6,0.8,5.4,3.4,5.4,3.4l-2.7-1.4c-1.8-0.6-4.3-1.6-6-2.4L-5.3,7.1z"/>
			<path class="st0" d="M-4.5,12.2c0.9,0.6,3.8,4.6,3.8,4.6l-1.4-2.7c-1.1-0.5-2.5-1.3-3.5-2L-4.5,12.2z"/>
			<path class="st0" d="M-6.1,9.4c1.4,0.6,5.4,4.1,5.4,4.1l-2.6-2.9c-1.5-0.5-2.9-0.5-4.3-1.2L-6.1,9.4z"/>
			<path class="st0" d="M-14.8,3.2c0.5,1.8,2.9,10.2,2.9,10.2l-2-5.5c-0.7-2.3-0.1-4.6-0.7-6.6L-14.8,3.2z"/>
			<path class="st0" d="M-16.6,2.1c0.5,1.8,2.9,10.2,2.9,10.2l-2-5.5c-0.7-2.3-0.1-4.6-0.7-6.6L-16.6,2.1z"/>
			<path class="st0" d="M-12.2,2c1.3,0.3,8.5,2.3,8.5,2.3l-4.2-2c-1.6-0.4-4.2,0.3-5.6,0L-12.2,2z"/>
			<path class="st0" d="M-13-0.2c1.4,0.4,8.1,2.2,8.1,2.2l-4.3-1.6c-1.8-0.6-3.6,0.3-5.2-0.1L-13-0.2z"/>
		</g>
		<g>
			<path class="st0" d="M-1.7,1.4c5,5.2,8.9,13,8.9,13c-2.4-6.5-4.9-9.6-9-14.6L-1.7,1.4z"/>
			<path class="st0" d="M1,5.4c0.3,1.4,1.8,7.1,1.8,7.1L1.4,9.1C1,7.3,1.6,5.6,1.3,4.1L1,5.4z"/>
			<path class="st0" d="M2.8,8.7c0.3,1.4,1.3,6.1,1.3,6.1l-0.4-2.4c-0.1-1.5-0.3-3.6-0.6-5.1L2.8,8.7z"/>
			<path class="st0" d="M4.9,11.6c0.2,0.9,2,4,2,4l-1.3-1.8c-0.1-0.9-0.2-2.2-0.4-3.1L4.9,11.6z"/>
			<path class="st0" d="M6.8,14.4c0.4,0.7,1.8,3.8,1.8,3.8l-0.9-2.2c-0.2-0.8-0.7-1.9-1.1-2.6L6.8,14.4z"/>
			<path class="st0" d="M3.8,9.8c0.3,1.4,1.3,6.1,1.3,6.1l-0.8-3c-0.1-1.5,0.1-3-0.2-4.5L3.8,9.8z"/>
			<path class="st0" d="M4.4,5.4c0.8,0.5,3.8,1.8,3.8,1.8L6.2,6c-1-0.7-3-0.2-3.9-0.7L4.4,5.4z"/>
			<path class="st0" d="M6,7.4c1.1,0.7,3.6,2.9,3.6,2.9L7.8,9.1C6.5,8.5,4.8,7.6,3.7,6.9L6,7.4z"/>
			<path class="st0" d="M6.3,11.3C6.9,11.9,8.7,15,8.7,15l-0.8-2.1c-0.7-0.5-1.7-1.2-2.3-1.7L6.3,11.3z"/>
			<path class="st0" d="M5.3,9.1c0.9,0.6,3.6,3.4,3.6,3.4l-1.6-2.3c-1.1-0.5-2-0.6-3-1.2L5.3,9.1z"/>
			<path class="st0" d="M-0.5,3.8c0.3,1.4,1.4,8,1.4,8l-1-4.3c-0.4-1.8,0.2-3.5-0.1-5L-0.5,3.8z"/>
			<path class="st0" d="M-1.7,2.9c0.3,1.4,1.4,8,1.4,8l-1-4.3c-0.4-1.8,0.2-3.5-0.1-5L-1.7,2.9z"/>
			<path class="st0" d="M1.5,3c0.9,0.3,5.9,2.2,5.9,2.2L4.5,3.5c-1.1-0.4-3,0-4-0.4L1.5,3z"/>
			<path class="st0" d="M1,1.3c1,0.4,5.6,2.1,5.6,2.1L3.7,2C2.4,1.4,1.1,2,0,1.6L1,1.3z"/>
		</g>
		<g>
			<path class="st0" d="M10.4,4.1c5.3,4.5,9.1,10.9,9.1,10.9c-2.2-5.3-4.9-8-9.2-12.2L10.4,4.1z"/>
			<path class="st0" d="M13.2,7.5c0.2,1.1,1.5,5.8,1.5,5.8l-1.4-2.8c-0.3-1.5,0.5-2.8,0.3-4L13.2,7.5z"/>
			<path class="st0" d="M15,10.3c0.2,1.1,1.1,5,1.1,5l-0.3-1.9c0-1.2-0.1-2.9-0.3-4.1L15,10.3z"/>
			<path class="st0" d="M17.3,12.7c0.1,0.7,2,3.3,2,3.3l-1.4-1.5c0-0.8-0.1-1.8-0.2-2.5L17.3,12.7z"/>
			<path class="st0" d="M19.2,15.1c0.4,0.6,1.8,3.2,1.8,3.2l-0.8-1.8c-0.2-0.7-0.6-1.5-1-2.2L19.2,15.1z"/>
			<path class="st0" d="M16.1,11.2c0.2,1.1,1.1,5,1.1,5l-0.7-2.4c0-1.2,0.3-2.4,0.1-3.6L16.1,11.2z"/>
			<path class="st0" d="M17,7.7c0.9,0.4,4.2,1.7,4.2,1.7l-2.2-1.1c-1.1-0.6-3.4-0.3-4.4-0.8L17,7.7z"/>
			<path class="st0" d="M18.8,9.4c1.2,0.6,3.9,2.6,3.9,2.6l-2-1.1c-1.4-0.5-3.2-1.4-4.5-2L18.8,9.4z"/>
			<path class="st0" d="M18.8,12.6c0.7,0.5,2.5,3.1,2.5,3.1l-0.8-1.7c-0.8-0.4-1.8-1-2.5-1.5L18.8,12.6z"/>
			<path class="st0" d="M17.8,10.7c1,0.5,3.8,3,3.8,3l-1.7-2c-1.2-0.4-2.2-0.6-3.3-1.1L17.8,10.7z"/>
			<path class="st0" d="M11.6,6.1c0.2,1.1,1,6.4,1,6.4l-0.9-3.5c-0.3-1.5,0.5-2.8,0.3-4L11.6,6.1z"/>
			<path class="st0" d="M10.3,5.3c0.2,1.1,1,6.4,1,6.4l-0.9-3.5c-0.3-1.5,0.5-2.8,0.3-4L10.3,5.3z"/>
			<path class="st0" d="M13.9,5.7c1,0.3,6.5,2.2,6.5,2.2l-3.1-1.6c-1.3-0.4-3.4-0.2-4.5-0.6L13.9,5.7z"/>
			<path class="st0" d="M13.5,4.3c1.1,0.4,6.2,2.1,6.2,2.1L16.5,5c-1.4-0.5-3-0.1-4.1-0.5L13.5,4.3z"/>
		</g>
		<g>
			<path class="st0" d="M22.4,7.2c9.3,2,17.5,6.5,17.5,6.5C34.3,9.7,29.5,8.3,21.7,6L22.4,7.2z"/>
			<path class="st0" d="M27.8,9.3c0.8,1,4.9,4.8,4.9,4.8L29.4,12c-1.1-1.2-0.7-2.8-1.6-3.9L27.8,9.3z"/>
			<path class="st0" d="M31.5,11.1c0.8,1,3.9,4.2,3.9,4.2L34,13.6c-0.6-1.2-1.6-2.7-2.5-3.7L31.5,11.1z"/>
			<path class="st0" d="M35.7,12.5c0.5,0.6,4.2,2.3,4.2,2.3L37.3,14c-0.4-0.7-1-1.6-1.6-2.3L35.7,12.5z"/>
			<path class="st0" d="M39.4,13.9c0.8,0.4,3.9,2.2,3.9,2.2l-2-1.3c-0.6-0.5-1.6-1.2-2.4-1.6L39.4,13.9z"/>
			<path class="st0" d="M33.3,11.5c0.8,1,3.9,4.2,3.9,4.2l-2.2-2c-0.6-1.2-0.8-2.3-1.7-3.4L33.3,11.5z"/>
			<path class="st0" d="M32.9,7.9c1.4,0,6.4-0.1,6.4-0.1l-3.4-0.2c-1.8-0.1-4.7,1.1-6.2,1.1L32.9,7.9z"/>
			<path class="st0" d="M36,8.8c1.9,0.1,6.5,0.8,6.5,0.8l-3.2-0.2c-2.1,0.1-5,0-7-0.1L36,8.8z"/>
			<path class="st0" d="M37.6,11.7c1.1,0.2,4.8,1.9,4.8,1.9l-1.9-1.3c-1.3-0.1-2.9-0.2-4.1-0.4L37.6,11.7z"/>
			<path class="st0" d="M35.5,10.4c1.6,0.1,6.5,1.2,6.5,1.2l-3.2-1.1c-1.8,0.1-3.2,0.4-4.9,0.3L35.5,10.4z"/>
			<path class="st0" d="M25,8.6c0.8,1,4.5,5.6,4.5,5.6l-2.9-2.9c-1.1-1.2-0.7-2.8-1.6-3.9L25,8.6z"/>
			<path class="st0" d="M22.9,8.3c0.8,1,4.5,5.6,4.5,5.6l-2.9-2.9c-1.1-1.2-0.7-2.8-1.6-3.9L22.9,8.3z"/>
			<path class="st0" d="M27.8,7.2c1.5-0.1,9.7-0.6,9.7-0.6l-4.9-0.2c-1.9,0.1-4.7,1.2-6.2,1.3L27.8,7.2z"/>
			<path class="st0" d="M26.6,6.1c1.7-0.1,9.3-0.6,9.3-0.6l-5,0c-2.1,0.1-4,1.1-5.7,1.2L26.6,6.1z"/>
		</g>
	</g>
</symbol>
<g>
	<path class="st1" d="M211.9,20.8l-37.4,64.7c-2.1-0.2-4.1-0.3-6.1-0.3l34.1-59h-45l-15.8,27.3h12.9l-24.1,41.7
		c-3.6,1.6-6.6,3.2-8.7,4.3L145.3,59h-12.9l22.1-38.2H211.9z M68.6,136.9l13.5,0c-0.7,2-1.2,3.8-1.5,5.4c-13.1,0-22.7-0.1-22.3-0.2
		l13.1-22.7h10.8L98,92.4l-43.1,0.2l-27,46.7c-5.1,8.8-6.5,16-4.2,21.4c2.2,5.8,8.1,8.8,17.6,8.8h78.5l1.5-2.5
		c1.8,0.4,3.7,0.7,5.7,1l-4,6.9H41.3c-10.4,0-19.2-3.3-22.7-12.2c-3.2-7.8-0.8-16.9,4.6-26.1l28.5-49.3l55.7-0.2l-22.3,38H74.5
		l-6.9,12L68.6,136.9z"/>
	<path class="st1" d="M214.4,98.5l-1.2,2l-2-0.7c-1.1-0.4-2.2-0.8-3.2-1.1c2-3.4,3.1-5.2,3.4-5.6H256l-9.3,16.1l29.4-0.2l24.9-43.1
		h-74.4c-9.5,0-18.8,2.8-27.9,8.4c-5.9,3.7-11,8-15.2,13c-2-0.6-3.9-1-5.8-1.3c4.9-6.4,11-11.8,18.2-16.3c9.8-6.1,20.1-9.2,30.8-9.2
		h83.7l-31.1,53.9l-42,0.3l9.3-16.1H214.4z M124.6,176.9l5-8.6l1.8,0.2c1.4,0.1,2.8,0.2,4.2,0.3l-6.3,10.9c-5,8.7-6.2,15.8-3.5,21.3
		c2.7,5.5,8.8,8.2,18.3,8.2h74.4l24.7-42.7l-29.4,0.2l-9.2,15.6h-44.4l14.8-25.8c1.3,1.3,2.7,2.5,4.3,3.4l-9.7,17h32l9.2-15.5
		l41.9-0.3l-31,53.6h-77.5c-10.3,0-19.1-3-23.2-11.2C117,195.3,119.3,186.1,124.6,176.9z"/>
	<path class="st2" d="M89.1,148l0.4-0.5c0.4-8.6,8.2-12.9,8.2-12.9c-0.9,4.1,0,6,1,7.3c0.9,1.2,2.6,2.3,3.3,2.4
		c1.1,11.4,20.2,17.8,28.7,19.4c7.4,1.3,19,2.2,29.9-2.1c-15.4,0.4-20.7-3.3-20.8-7.7c-0.3-12.1,31.7-12.3,31.6-12.7
		c-1-3.4-1.3-5.4-2.8-8.5c-1-2-2-3.5-4.1-4.8c-2.9-1.8-6.1-2.7-7.9-3.5c0.5,1.3,0.9,2,1.8,3c0.9,1,1.5,1.4,2.7,2
		c0.4-0.2,0.7-0.2,1.1-0.2c0.9,0,1.5,0.2,2.1,0.7c2.5,2.5,4,5.4,4.9,8.1c-6.5,0.9-13.2,2.2-21.9,5.1c-8.5,2.9-22.6,8.8-17.6,16.5
		c0.9,1.4,2.3,1.7,3.9,2.3c-6.5-0.8-28-10.4-25.7-24c1-5.8,4.4-7.8,8.1-10c-4.6,1.8-7.4,2.9-10.3,6.1c-1.9,2-2.9,4-3.7,7
		c-0.9-1.9-1.4-3.1-0.9-5.3c0.3-1.7,1.3-5,3.7-7c-3.1,1.4-7.2,3.3-10.5,6.9C90.8,139.2,89.3,142.5,89.1,148z M186,111
		c0.5,0.3,1.1,0.5,2.1,1c1.7,0.8,3.1,0.9,4.2,0.7c-0.3,0.3-0.5,0.5-0.8,0.8c-3.6,4.1-7.3,5.9-13.6,6.9c-4.3,0.7-11.9,1-11.9,1
		s8.4,1.3,19.3-1.1c3.3-1.1,6.3-2.7,8.3-4.7c5.9-6,14.2-8.2,23.5-8.4c0-1.1-2.1-2.4-7-4.1c-13.1-4.3-17-8.7-25.7-11.7
		c-27.9-9.6-60.8,12.3-60.8,12.3s3-1,6.4-1.8c-3.4,1.4-7.4,3.3-11.5,5.5c-11.8,6.5-24.3,16.5-29.9,30.1c0.1-0.2,4.5-8.5,13.5-15.3
		c10.5-7.9,27.4-16.1,51.9-15.4c-3.7-0.5-11.7-2.2-8.5-6.4c8.8-5.1,29.1-14.8,45-1.3c4.8,4.7,24.4,5.4,17.4,8.1
		c-4.6,0.2-10.3,0.9-14.6,4.3c-1.5,0-4.1-0.3-5.6-1.2c-1.6-1.1-2.4-2.4-2.8-4.9c-2.7-14.4-17.2-6.4-17.2-6.4s5-0.9,7.4,1.2
		c-7.2-1.4-15,4-15,4s9.2-3.3,14.3-0.3c-0.3,0.3-0.6,0.6-0.8,1c-1.6,2.7-0.2,6,3.3,7.5c2.4,1,5,0.8,7-0.2c2.5,0.8,5.1,0.3,5.1,0.3
		C187.1,112.2,186.3,111.6,186,111z M213.5,110.8c0,0-2.2,0.6-4.7,0c-2.9-0.7-6.9,4.6-6.9,4.6s3.7-2.5,7.3-2.2
		C211.8,113.5,213.5,110.8,213.5,110.8z M221.7,108.8c0,0-3.1,0-2.9,0.4c16.4,5,12.4,15.9,12.4,15.9
		C234.3,116.5,231.1,111.1,221.7,108.8z M178,146.6c0,0-0.8,6.3,12.6,8.3c-0.5,0-10.9-3.7-11.5-10.9C179,144.4,178,146.6,178,146.6z
		 M115.4,135.3c0,0-6.4,12,8.1,18.3c-1.1-0.7-14.2-11.4,0.8-22.5C124.4,130.8,115.4,135.3,115.4,135.3z M86.7,157.9
		c-1.4-0.5-10.5-4.5-4.8-20.6c6.1-16.1,23.8-27.3,36-34.1c0.5-0.4,0.7-1.2,0.8-1.7c2.1-1.4,11.2-6.4,22.5-10.5
		c12.6-4.6,27.7-8.7,45-2.8c2.1,0.7,3.6,1.4,5,2.2c1.4,0.8,2.6,1.6,4.2,2.5c3,1.8,7.2,4,15.9,7c2.3,0.8,4.4,1.4,6,2.2
		c1.1,0.5,2.5,1.3,3.4,2.5l1.8,0.2c11,0.5,21.5,13.2,11.6,27.3c-3.5,5-7.9,8.8-11.7,10.7c-9.4,4.8-15.2,4.5-15.3,4.5
		c0,0,2.3-1.6,3.9-3.7c1.4-1.8,2.9-4.3,4.1-7.1c0.3-0.6,0.4-1.2,0.4-1.8c1.6-6-3-9.9-5.5-10.7c-6.6-2.2-14.3,1.3-24,2.1
		c-3.7,0.3-5.8,0-9.6-0.3c2.2,1.1,3.5,2,5,3.9c1.6,2,0.9,8.1,3.5,12.4c1.6,2.6,2.7,5,5,6.1c-1.7-1.9-2.9-5.1-2.3-7.7
		c2-8.5,16.2-14.6,22.4-13.6c1.8,0.3,5.5,1.6,5.4,6.9c-0.3-1-1.1-1.8-2.8-2.3c-3.7-1.1-14.2,3.1-18,8.4l-0.4,0.8
		c-0.2,0.4-0.4,0.9-0.5,1.6c-0.2,1.3-0.3,3.4,1.2,6.1c1.4,2.6,3.6,3.7,5.4,4.1c4.9,1.1,8.9-0.9,8.9-0.9c-2.6,6-8,9.4-13.2,10.4
		c-10.1,1.9-18.9-1-24-9.4c-0.9-1.2-1.9-3.1-2.6-5.4c-7,0.5-16.8,2.3-21.4,3.8c-1.8,0.6-2.1,2.4-2,2.8c1.5,3.6,13.8,3.8,18.3,3.1
		c1.9-0.2,3.6-0.5,4.9-0.9l1.1-0.3l-0.4,1.1c0,0.1-11.6,14.4-38.5,11.9c-13.4-1.3-23.3-4.5-29.9-12.6c-0.4-0.7-0.8-1.7-1.1-2.6
		c-3.4-0.7-5.4-2.2-6.6-3.8c-0.5-0.7-0.9-1.3-1.1-2l-0.2-0.5l-0.2,0.5c-1.3,3-1.4,5.8-1.3,7.9c0.1,1.2,0.4,2.3,0.6,3l0.2,0.6
		l0.2,0.4l-0.4-0.1C90.4,158.9,88.4,158.5,86.7,157.9z"/>
	<path class="st3" d="M153.4,100"/>
	<path class="st1" d="M183.1,112.1c0,0-3,1.5-6.4-1c-2.9-2.1-0.4-6.4-0.4-6.4s3.1,0,4.4,1.5c-1.3-0.1-2.6,0.8-3.1,2.1
		c-0.5,1.3,0.3,2.6,1.6,2.8c0.9,0.1,1.8-0.2,2.4-0.7C182.2,111.4,183.1,112.1,183.1,112.1z"/>
	<path class="st2" d="M180,107.9c0.2-0.1,0.5-0.1,0.7-0.1c0.5,0.1,0.6,0.6,0.4,1.1c-0.2,0.4-0.7,0.6-1.1,0.7
		C180.2,108.8,180.1,108.5,180,107.9z"/>
</g>
</svg>
